<?xml version="1.0" encoding="iso-8859-1"?>
<!-- Generator: Adobe Illustrator 19.0.0, SVG Export Plug-In . SVG Version: 6.00 Build 0)  -->
<svg version="1.1" id="Capa_1" xmlns="http://www.w3.org/2000/svg" xmlns:xlink="http://www.w3.org/1999/xlink" x="0px" y="0px"
	 viewBox="0 0 512 512" style="enable-background:new 0 0 512 512;" xml:space="preserve">
<path style="fill:#FD3018;" d="M481.099,236.201L428,76.901C422,58.299,404.9,46,385.401,46H126.599C107.1,46,90,58.299,84,76.901
	l-53.099,159.3c-1.802,4.499-0.901,9.598,1.8,13.499c2.999,3.899,7.5,6.3,12.299,6.3h422c4.799,0,9.3-2.401,12.299-6.301
	C482,245.799,482.901,240.7,481.099,236.201z"/>
<path style="fill:#E61E14;" d="M479.299,249.699c-2.999,3.9-7.5,6.301-12.299,6.301H256V46h129.401C404.9,46,422,58.299,428,76.901
	l53.099,159.3C482.901,240.7,482,245.799,479.299,249.699z"/>
<path style="fill:#53433F;" d="M399.5,86.201C397.7,80.2,391.7,76,385.401,76H126.599C120.3,76,114.3,80.2,112.5,86.201L65.7,226
	h380.6L399.5,86.201z"/>
<path style="fill:#3E322E;" d="M446.3,226H256V76h129.401c6.299,0,12.299,4.2,14.099,10.201L446.3,226z"/>
<path style="fill:#53433F;" d="M105,376H45c-8.401,0-15,6.599-15,15v30c0,24.901,20.099,45,45,45s45-20.099,45-45v-30
	C120,382.599,113.401,376,105,376z"/>
<path style="fill:#3E322E;" d="M120,391v30c0,24.901-20.099,45-45,45v-90h30C113.401,376,120,382.599,120,391z"/>
<path style="fill:#53433F;" d="M467,376h-60c-8.401,0-15,6.599-15,15v30c0,24.901,20.099,45,45,45s45-20.099,45-45v-30
	C482,382.599,475.401,376,467,376z"/>
<path style="fill:#3E322E;" d="M482,391v30c0,24.901-20.099,45-45,45v-90h30C475.401,376,482,382.599,482,391z"/>
<g>
	<path style="fill:#00C0F1;" d="M240,226v30H120v-30c0-32.999,27.001-60,60-60c16.5,0,31.5,6.599,42.299,17.701
		C233.401,194.5,240,209.5,240,226z"/>
	<path style="fill:#00C0F1;" d="M210,136c0,16.5-13.5,30-30,30s-30-13.5-30-30s13.5-30,30-30S210,119.5,210,136z"/>
</g>
<g>
	<path style="fill:#00AADF;" d="M240,226v30h-60v-90c16.5,0,31.5,6.599,42.299,17.701C233.401,194.5,240,209.5,240,226z"/>
	<path style="fill:#00AADF;" d="M210,136c0,16.5-13.5,30-30,30v-60C196.5,106,210,119.5,210,136z"/>
</g>
<g>
	<path style="fill:#00C0F1;" d="M392,226v30H272v-30c0-32.999,27.001-60,60-60c16.5,0,31.5,6.599,42.299,17.701
		C385.401,194.5,392,209.5,392,226z"/>
	<path style="fill:#00C0F1;" d="M362,136c0,16.5-13.5,30-30,30s-30-13.5-30-30s13.5-30,30-30S362,119.5,362,136z"/>
</g>
<g>
	<path style="fill:#00AADF;" d="M392,226v30h-60v-90c16.5,0,31.5,6.599,42.299,17.701C385.401,194.5,392,209.5,392,226z"/>
	<path style="fill:#00AADF;" d="M362,136c0,16.5-13.5,30-30,30v-60C348.5,106,362,119.5,362,136z"/>
</g>
<path style="fill:#FD3018;" d="M512,271v90c0,24.901-20.099,45-45,45h-75l-27.299-18.6H147.299L120,406H45
	c-24.901,0-45-20.099-45-45v-90c0-24.901,20.099-45,45-45h422C491.901,226,512,246.099,512,271z"/>
<path style="fill:#E61E14;" d="M512,271v90c0,24.901-20.099,45-45,45h-75l-27.299-18.6H256V226h211C491.901,226,512,246.099,512,271
	z"/>
<g>
	<circle style="fill:#EFE2DD;" cx="437" cy="301" r="15"/>
	<circle style="fill:#FFEEE6;" cx="75" cy="301" r="15"/>
</g>
<path style="fill:#FD4E26;" d="M392,406H120l27.299-108.6c1.501-6.601,7.5-11.4,14.401-11.4h188.6c6.901,0,12.9,4.799,14.401,11.4
	L392,406z"/>
<path style="fill:#FD3018;" d="M364.701,297.4L392,406H256V286h94.3C357.201,286,363.199,290.799,364.701,297.4z"/>
<g>
</g>
<g>
</g>
<g>
</g>
<g>
</g>
<g>
</g>
<g>
</g>
<g>
</g>
<g>
</g>
<g>
</g>
<g>
</g>
<g>
</g>
<g>
</g>
<g>
</g>
<g>
</g>
<g>
</g>
</svg>
