<svg height="512" viewBox="0 0 64 64" width="512" xmlns="http://www.w3.org/2000/svg"><g id="flat"><path d="m27 36h28v25h-28z" fill="#ad6327"/><path d="m32 15h18v17h-18z" fill="#ffd782"/><path d="m55 36h6a0 0 0 0 1 0 0v25a0 0 0 0 1 0 0h-3a3 3 0 0 1 -3-3v-22a0 0 0 0 1 0 0z" fill="#d3843d" transform="matrix(-1 0 0 -1 116 97)"/><path d="m24 36a3 3 0 0 0 -3 3v11h-8v6h14v-20z" fill="#d3843d"/><path d="m3 50h4v6h-4z" fill="#f9bb4b"/><path d="m35 18h2v2h-2z" fill="#394d5c"/><path d="m45 18h2v2h-2z" fill="#394d5c"/><path d="m40 21h2v4h-2z" fill="#394d5c"/><path d="m31 19h1a0 0 0 0 1 0 0v6a0 0 0 0 1 0 0h-1a3 3 0 0 1 -3-3 3 3 0 0 1 3-3z" fill="#f9bb4b"/><path d="m53 19h1a0 0 0 0 1 0 0v6a0 0 0 0 1 0 0h-1a3 3 0 0 1 -3-3 3 3 0 0 1 3-3z" fill="#f9bb4b" transform="matrix(-1 0 0 -1 104 44)"/><path d="m41 29a6.006 6.006 0 0 1 -6-6h2a4 4 0 0 0 8 0h2a6.006 6.006 0 0 1 -6 6z" fill="#394d5c"/><path d="m45 36h3l1 8s-3-3-6-3z" fill="#d3843d"/><path d="m37 36h-3l-1 8s3-3 6-3z" fill="#d3843d"/><path d="m40 41h2v20h-2z" fill="#66342e"/><path d="m31 50h6a0 0 0 0 1 0 0v4a3 3 0 0 1 -3 3 3 3 0 0 1 -3-3v-4a0 0 0 0 1 0 0z" fill="#d3843d"/><path d="m45 50h6a0 0 0 0 1 0 0v4a3 3 0 0 1 -3 3 3 3 0 0 1 -3-3v-4a0 0 0 0 1 0 0z" fill="#d3843d"/><path d="m48 47h2v3h-2z" fill="#ffd782"/><rect fill="#e1462b" height="4" rx="2" width="24" x="29" y="11"/><path d="m35 5h4a0 0 0 0 1 0 0v6a0 0 0 0 1 0 0h-8a0 0 0 0 1 0 0v-2a4 4 0 0 1 4-4z" fill="#e97424"/><path d="m43 5h8a0 0 0 0 1 0 0v6a0 0 0 0 1 0 0h-4a4 4 0 0 1 -4-4v-2a0 0 0 0 1 0 0z" fill="#e97424" transform="matrix(-1 0 0 -1 94 16)"/><path d="m39 3h4v8h-4z" fill="#d36011"/><g fill="#ffd782"><path d="m31 47h2v3h-2z"/><path d="m35 47h2v3h-2z"/><path d="m7 48h6v10h-6z"/></g><path d="m8 39h4v9h-4z" fill="#32b1cc"/><path d="m8 39-4-5v-5l4-2v5h4v-5l4 2v5l-4 5z" fill="#2d75bb"/><path d="m41 46-4-10h8z" fill="#ffd782"/></g></svg>