<?xml version="1.0" encoding="iso-8859-1"?>
<!-- Generator: Adobe Illustrator 19.0.0, SVG Export Plug-In . SVG Version: 6.00 Build 0)  -->
<svg version="1.1" id="Capa_1" xmlns="http://www.w3.org/2000/svg" xmlns:xlink="http://www.w3.org/1999/xlink" x="0px" y="0px"
	 viewBox="0 0 512 512" style="enable-background:new 0 0 512 512;" xml:space="preserve">
<path style="fill:#495A79;" d="M422,256c-49.501,0-90,40.499-90,90s40.499,90,90,90s90-40.499,90-90S471.501,256,422,256z M422,406
	c-32.999,0-60-27.001-60-60s27.001-60,60-60s60,27.001,60,60S454.999,406,422,406z"/>
<path style="fill:#42516D;" d="M512,346c0,49.501-40.499,90-90,90v-30c32.999,0,60-27.001,60-60s-27.001-60-60-60v-30
	C471.501,256,512,296.499,512,346z"/>
<path style="fill:#495A79;" d="M90,256c-49.501,0-90,40.499-90,90s40.499,90,90,90s90-40.499,90-90S139.501,256,90,256z M90,406
	c-32.999,0-60-27.001-60-60s27.001-60,60-60s60,27.001,60,60S122.999,406,90,406z"/>
<path style="fill:#42516D;" d="M180,346c0,49.501-40.499,90-90,90v-30c32.999,0,60-27.001,60-60s-27.001-60-60-60v-30
	C139.501,256,180,296.499,180,346z"/>
<g>
	<rect x="120" y="166" style="fill:#495A79;" width="152" height="90"/>
	<path style="fill:#495A79;" d="M347,106h-30c-8.291,0-15-6.709-15-15s6.709-15,15-15h30c8.291,0,15,6.709,15,15
		S355.291,106,347,106z"/>
</g>
<g>
	<path style="fill:#949FB3;" d="M430.401,358.599C427.7,360.099,424.999,361,422,361c-4.799,0-9.6-2.401-12.599-6.599l-70.201-105
		c-4.799-6.901-2.699-16.201,3.9-21c6.899-4.501,16.199-2.701,21,4.199l57.9,86.102l12.599,18.898
		C439.1,344.5,437.3,353.8,430.401,358.599z"/>
	<path style="fill:#949FB3;" d="M257,316v60H90c-16.5,0-30-13.5-30-30s13.5-30,30-30H257z"/>
</g>
<rect x="196" y="316" style="fill:#8A94A8;" width="61" height="60"/>
<rect x="196" y="166" style="fill:#42516D;" width="76" height="90"/>
<path style="fill:#D94158;" d="M347,76c-8.401,0-15,6.599-15,15v45h-45c-5.099,0-9.6,2.401-12.599,6.599L217.899,226H173.1
	l-47.7-71.4c-7.8-11.7-20.7-18.6-34.799-18.6H15c-8.401,0-15,6.599-15,15c0,38.401,29.099,70.499,66.599,74.399L114.6,297.4
	c7.8,11.7,20.7,18.6,34.799,18.6H185.7l10.3,18.9l9,17.999C212.199,367,226.601,376,242.8,376h22c20.099,0,37.2-14.099,41.1-33.9
	l2.401-10.499C320.3,270.399,374.599,226,437,226c8.401,0,15-6.599,15-15v-30C452,123.1,404.9,76,347,76z"/>
<path style="fill:#CC2944;" d="M452,181v30c0,8.401-6.599,15-15,15c-62.401,0-116.7,44.399-128.699,105.601L305.9,342.1
	c-3.9,19.801-21,33.9-41.1,33.9h-22c-16.199,0-30.601-9-37.8-23.101l-9-17.999V226h21.899l56.501-83.401
	c3-4.198,7.501-6.599,12.6-6.599h45V91c0-8.401,6.599-15,15-15C404.9,76,452,123.1,452,181z"/>
<path style="fill:#8A94A8;" d="M430.401,358.599C427.7,360.099,424.999,361,422,361v-42.299l12.599,18.898
	C439.1,344.5,437.3,353.8,430.401,358.599z"/>
<g>
</g>
<g>
</g>
<g>
</g>
<g>
</g>
<g>
</g>
<g>
</g>
<g>
</g>
<g>
</g>
<g>
</g>
<g>
</g>
<g>
</g>
<g>
</g>
<g>
</g>
<g>
</g>
<g>
</g>
</svg>
