<svg id="Layer_1" height="512" viewBox="0 0 512 512" width="512" xmlns="http://www.w3.org/2000/svg" data-name="Layer 1"><path d="m496.54 196.83a60.292 60.292 0 1 1 -54.35-53.93l.26.26-32.81 32.82 8.44 45.44 45.43 8.43z" fill="#ccd3df"/><path d="m406.58 419.78a41.81 41.81 0 1 1 -18.06 34.4 41.531 41.531 0 0 1 18.06-34.4zm44.7 34.4-10.47-18.13h-20.94l-10.47 18.13 10.47 18.14h20.94z" fill="#6d7486"/><path d="m406.58 255.26v164.52a41.791 41.791 0 0 1 47.37-.1l.14-.2v-158.84a60.375 60.375 0 0 1 -47.51-5.38z" fill="#b0b5ca"/><path d="m349.87 373.27v122.73h-59.84v-198.68a78.125 78.125 0 0 1 59.84 75.95z" fill="#a0eaea"/><path d="m240.35 277.89-.58 1.08v47.71a57.26 57.26 0 1 1 -114.52 0v-47.57l-2.22 1.11-48.05 17.1v198.68h58.16v-88.07a116.943 116.943 0 0 0 108.71.2v87.87h48.18v-198.68z" fill="#fe8700"/><path d="m271.36 119.41h-177.7a11.605 11.605 0 0 0 0 23.21h177.7a11.605 11.605 0 0 0 0-23.21z" fill="#edb740"/><path d="m270.87 118.46v.95h-176.72v-.8c0-37.31 20.65-70 50.5-85.13v11.3a54.568 54.568 0 0 0 37.67 51.88l1.25.4a54.54 54.54 0 0 0 36.8-51.59v-12c29.85 15.1 50.5 47.68 50.5 84.99z" fill="#ffdb00"/><path d="m266.97 232.22a54.078 54.078 0 0 1 -16.56 50.8q-5.1-2.445-10.06-5.13c-.58-.31-1.16-.62-1.74-.94l-15.58-8.57v-6.78l-.09-.11a62.753 62.753 0 0 0 22-35.75l5.28-24.65h3.34a12.441 12.441 0 0 0 6.69-1.94z" fill="#6d7486"/><path d="m108.11 177.2a12.432 12.432 0 0 1 5.24-1.15h3.34a35.681 35.681 0 0 1 22.8-33.29v-.14h62.22c1.51.36 3.04.66 4.59.91a111.8 111.8 0 0 0 13.61 1.28 31.327 31.327 0 0 1 30.31 31.24h3.34a12.52 12.52 0 0 1 0 25.04h-3.34l-5.28 24.65a62.877 62.877 0 0 1 -101.01 35.72c-.34-.28-.68-.55-1.01-.84a62.7 62.7 0 0 1 -20.95-34.88l-5.28-24.65h-3.34a12.522 12.522 0 0 1 -5.24-23.89z" fill="#ffd8b7"/><path d="m258.37 142.64v34.37a12.4 12.4 0 0 0 -4.81-.96h-3.34a31.327 31.327 0 0 0 -30.31-31.24 111.8 111.8 0 0 1 -13.61-1.28c-1.55-.25-3.08-.55-4.59-.91h56.66z" fill="#6d7486"/><path d="m241.85 494.75v1.25h-108.71v-88.07a116.943 116.943 0 0 0 108.71.2z" fill="#ffdb00"/><path d="m240.35 277.89-.58 1.08v47.71a57.26 57.26 0 1 1 -114.52 0v-47.57l16.9-8.49v6.09a47.491 47.491 0 0 0 11.25 30.69 38.26 38.26 0 0 0 58.37 0 47.373 47.373 0 0 0 11.26-30.69v-8.33l15.58 8.57c.58.32 1.16.63 1.74.94z" fill="#a0eaea"/><path d="m222.94 261.49a62.86 62.86 0 0 1 -79.01-.03c-.34-.28-.68-.55-1.01-.84l-.77.98v15.11a47.491 47.491 0 0 0 11.25 30.69 38.26 38.26 0 0 0 58.37 0 47.373 47.373 0 0 0 11.26-30.69v-15.11z" fill="#efc597"/><path d="m220.37 33.47v12a54.54 54.54 0 0 1 -36.8 51.59l-1.25-.4a54.568 54.568 0 0 1 -37.67-51.88v-11.3a82.539 82.539 0 0 1 16.24-6.22l-1.17-11.26h45.58l-1.17 11.26a82.507 82.507 0 0 1 16.24 6.21z" fill="#edb740"/><path d="m125.25 279.11-2.22 1.11q-3.375 1.695-6.81 3.25a54.121 54.121 0 0 1 -17.05-51.25l6.81-33.53a12.469 12.469 0 0 0 7.37 2.4h3.34l5.28 24.65a62.7 62.7 0 0 0 20.95 34.88l-.77.98v9.02z" fill="#6d7486"/><path d="m139.49 142.62v.14a35.681 35.681 0 0 0 -22.8 33.29h-3.34a12.432 12.432 0 0 0 -5.24 1.15v-34.58z" fill="#6d7486"/><path d="m74.98 297.32v198.68h-59.83v-122.73a78.127 78.127 0 0 1 59.83-75.95z" fill="#a0eaea"/><path d="m124.15 118.61a97.72 97.72 0 0 1 21.83-61.893 54.53 54.53 0 0 1 -1.33-11.937v-11.3c-29.85 15.13-50.5 47.82-50.5 85.13v.8h30z" fill="#fffc8f"/><path d="m145.98 56.717a89.356 89.356 0 0 1 28.67-23.237 82.539 82.539 0 0 1 16.24-6.22l-1.17-11.26h-30l1.17 11.26a82.539 82.539 0 0 0 -16.24 6.22v11.3a54.53 54.53 0 0 0 1.33 11.937z" fill="#fc6"/><path d="m112.06 131.02a11.608 11.608 0 0 1 11.6-11.61h-30a11.605 11.605 0 0 0 0 23.21h30a11.6 11.6 0 0 1 -11.6-11.6z" fill="#fc6"/><path d="m173.93 261.46c-.34-.28-.68-.55-1.01-.84a62.7 62.7 0 0 1 -20.95-34.88l-.9-4.2a197.6 197.6 0 0 1 -4.381-41.374v-4.116a35.681 35.681 0 0 1 22.8-33.29v-.14h-30v.14a35.681 35.681 0 0 0 -22.8 33.29h-3.34a12.52 12.52 0 0 0 0 25.04h3.34l5.28 24.65a62.7 62.7 0 0 0 20.95 34.88c.33.29.67.56 1.01.84a62.787 62.787 0 0 0 54.522 12.156 62.889 62.889 0 0 1 -24.521-12.156z" fill="#efc597"/><path d="m74.98 311.887v-14.567a78.127 78.127 0 0 0 -59.83 75.95v122.73h30v-122.73a77.95 77.95 0 0 1 29.83-61.383z" fill="#74c4c2"/><path d="m194.328 69.947h-21.528a6 6 0 0 1 0-12h21.526a6 6 0 0 1 0 12z" fill="#d39c2f"/><path d="m194.328 50.1h-21.528a6 6 0 0 1 0-12h21.526a6 6 0 0 1 0 12z" fill="#d39c2f"/><path d="m153.144 478.751a6 6 0 0 1 -6-6v-28.567a6 6 0 1 1 12 0v28.567a6 6 0 0 1 -6 6z" fill="#ddb903"/><g fill="#54a39f"><path d="m182.51 344.135a7.909 7.909 0 1 1 7.909-7.908 7.917 7.917 0 0 1 -7.909 7.908z"/><path d="m182.51 368.948a7.909 7.909 0 1 1 7.909-7.909 7.917 7.917 0 0 1 -7.909 7.909z"/></g></svg>